# xmcd CD database file
#
# Track frame offsets:
#	150
#	35166
#	57498
#	83485
#	111512
#	151227
#	176859
#
# Disc length: 3283 seconds
#
# Revision: 0
# Processed by: cddbd v1.5.2PL0 Copyright (c) Steve Scherf et al.
# Submitted via: CDex 1.70beta2
#
DISCID=5b0cd107
DTITLE=The ACT Jubilee Concert - The ACT Jubilee Concert CD 2
DYEAR=2012
DGENRE=Jazz
TTITLE0=Little Wing
TTITLE1=Lonely Dancer
TTITLE2=ZigZag Blues
TTITLE3=Silent Way
TTITLE4=Dodge The Dodo
TTITLE5=Love Is Real
TTITLE6=Purple Haze
EXTD=YEAR: 2012
EXTT0=
EXTT1=
EXTT2=
EXTT3=
EXTT4=
EXTT5=
EXTT6=
PLAYORDER=
